<svg xmlns="http://www.w3.org/2000/svg" viewBox="0 0 921.6 336">
  <style>
    :root {
      --text-color: #1A237E;
    }
    @media (prefers-color-scheme: dark) {
      :root {
        --text-color: #9FA8DA;
      }
    }

    .future-text {
      fill: none;
      stroke: var(--text-color);
      stroke-width: 5.4;
      stroke-linejoin: miter;
      stroke-miterlimit: 100;
      fill-rule: nonzero;
    }
    .machine-text {
      transform: translate(412px, 318px) scale(1.149, 1.25);
      fill: var(--text-color);
    }
  </style>
  <path d="M267.3 142.95h-17.85V182c0 34-29.25 62.8-63.25 62.8S122.95 216 122.95 182v-39.05H94.1v98.75h-28v-98.75H50v-24.9h16.1C66 67.4 100 55 130 61v27c-30-6-35.9 12-35.9 30.05h56.85V183c0 17 14.25 35 35.25 35s35.25-18 35.25-35v-64.95h45.85V67.49h28v50.56h56.65V183c0 17 14.25 35 35.25 35s35.25-18 35.25-35v-64.95h54.15v13.25s13.9-17.4 41.9-15.4c15 0 26.1 10.793 26.1 10.793a64.2 64.3 0 0 1 99.125 64.473h-99.276A37.6 39.3 0 0 0 580.5 219.3c20 0 31-15.8 31-15.8l25.626 9.327c-5 12-23.626 31.473-56.626 31.473a64.2 64.3 0 0 1-55.03-97.417c-25-14-47.07 11.117-47.07 31.117v63.7h-28l.05-98.75-.05 98.75.05-59.7c0 34-29.25 62.8-63.25 62.8S323.95 216 323.95 182v-39.05H295.3V263c0 10 7.7 21.1 20.7 21.1h29v28.8h-34c-20 0-43.7-18.8-43.7-48.8ZM545.017 167a37.6 39.3 0 0 1 70.966 0Z" class="future-text"/>
  <g class="machine-text">
    <rect width="20" height="12.2" x="276" y="-69" rx="0"/>
    <path d="M32.2-13.1h-6v-17.8c0-4.1 1.3-6 4.5-6 4 0 4.2 3.3 4.2 11.4V0h25.9v-13.4h-6v-16.2c0-4.3 1-7.3 5.3-7.3 4.7 0 3.8 7.6 3.8 12.4V0h25.4v-13.5h-4.9v-13.8c0-12.2-2.5-24-18.7-24-6.9 0-11.6 3.7-14.7 7.2-1.6-2.4-4.8-7.2-14.9-7.2-6.3 0-10.9 5.4-12.5 7.3l-2.2-5.9H2.5v13.2h4.2v23.6H2.5V0h29.7Zm66.4-21.1c3.8-2.1 9-4.6 14.9-4.6 5.4 0 9.5 1.1 9.5 5.6v3.5c-.5-.6-4-3.5-9.9-3.5-11.3 0-20.8 7.1-20.8 18.4 0 11.6 10.2 16.7 19.7 16.7 3.6 0 9.8-1.3 13.5-6.4l2.4 4.5h21.4v-12.8h-6v-19.5c0-16.1-15.1-20.6-27.1-20.6-9.2 0-17.8 4.7-21.8 7.1Zm18 23.1c-3 0-5.3-1.9-5.3-4.7 0-3.1 1.8-5.3 5.8-5.3 4.2 0 5.6 2.4 5.9 2.9v3.8c-.9 1.5-3.4 3.3-6.4 3.3m84.9-16.3V-50h-11.8l-1.7 4.8c-1.7-2-5.7-5.7-12.5-5.7-12.8 0-24.6 7.9-24.6 25.6 0 17.8 12.8 26.7 27.5 26.7 10.8 0 19.8-5.1 24.5-10.2L194.1-19c-3.3 3.6-6.8 5.8-12.1 5.7-6.4-.1-10.3-5.3-10.3-11.8s2.9-12.8 8.8-12.8c4.6 0 6.1 5.7 6.3 10.5Zm36.3 14.3h-7.2v-14.1c0-4.3 1.2-9.3 6.3-9.3 5.9 0 5.9 5.9 5.9 9.3V0h25.7v-13.1h-4.7v-16.7c0-10.5-2-22-17.5-22-7.3 0-14.6 6.2-15.7 8v-24.7h-24.2v13h4.2v42.4h-4.2V0h31.4Zm62.7 0h-4.8V-50h-23.2v13h4.2v23.9h-4.2V0h28Zm35.8 0h-7.2v-14.2c0-4.3 1.2-9.3 6.3-9.3 5.9 0 5.6 5.9 5.6 9.3V0h25.2v-13.1h-4.7v-16.7c0-10.5-2.6-22-18.1-22-6.3 0-10.9 3.3-14.3 8l-2.3-6.2h-21.3v13h4.2v23.9h-4.2V0h30.8Zm75.7-3.5c-5.4 4.5-10.6 4.8-14 4.8-8.4 0-9.7-5.5-10.3-8.2h31.5c2.1-5.7 1-13.4-.2-16.9-2.9-8.4-12-14.5-23.9-14.5-15.1 0-26.9 9.7-26.9 26.1 0 19.2 14 27.1 26.4 27.1 10.4 0 18.4-2.3 25.8-8.7Zm-16.3-21.3c6.4 0 7.3 4.2 7.4 8H388c.2-2.5 1.6-8 7.7-8"/>
  </g>
</svg>
